<?xml version="1.0" encoding="UTF-8"?> <svg xmlns="http://www.w3.org/2000/svg" xmlns:xlink="http://www.w3.org/1999/xlink" width="771.1" height="537.8" viewBox="0 0 771.1 537.8"><defs><clipPath id="clip-path"><path id="Path_3" data-name="Path 3" d="M232.8,167a170.72,170.72,0,0,1,21.4,1.3l6.4.8,2.1-6.1c18.8-55,69.6-101.7,124.9-95,1.8.2,3.5,0,5.3.1V355.3H87.9c-12.8-20-16.6-33.6-17.5-56.5C67.3,218.1,147.7,167,232.8,167Z"></path></clipPath><clipPath id="clip-path-2"><path id="Path_5" data-name="Path 5" d="M232.8,166.9a170.72,170.72,0,0,1,21.4,1.3l6.4.8,2.1-6.1c18.8-55,69.6-101.7,124.9-95,1.8.2,3.5,0,5.3.1V355.2H87.9c-12.8-20-16.6-33.6-17.5-56.5C67.3,218,147.7,166.9,232.8,166.9Z"></path></clipPath></defs><g id="BarCloud_Logo_Light" data-name="BarCloud Logo Light" transform="translate(-2913.9 2904.4)"><g id="Group_7" data-name="Group 7" transform="translate(2883.7 -2925.2)"><g id="Group_6" data-name="Group 6"><g id="Group_1" data-name="Group 1"><path id="Path_1" data-name="Path 1" d="M702.2,219.2l-9.2-3.5-3.7-9.1c-19.5-48.3-66.1-81.5-118.9-84.6l-12.3-.7-6-10.7a173.214,173.214,0,0,0-74-70.8,179.566,179.566,0,0,0-80.2-19c-65.7,0-125.4,35.4-155.6,92.4L236,125H222.6c-106.1.3-192.4,77.4-192.4,171.8,0,31.6,9.7,62.5,28.1,89.4a17.083,17.083,0,0,0,14,7.4H745.9a16.866,16.866,0,0,0,14.5-8.2,113.366,113.366,0,0,0,16.5-58.9C777.2,279.3,747,236.2,702.2,219.2Z" fill="#00ace9"></path><path id="Path_2" data-name="Path 2" d="M223.4,150.7a200.607,200.607,0,0,1,23.2,1.4l6.9.8,2.3-6.6c20.4-59.7,77.5-99.9,142.1-99.9,1.9,0,3.8,0,5.8.1V367.9H77.1A131.8,131.8,0,0,1,56,296.8C56,216.2,131.1,150.7,223.4,150.7Z"></path></g><g id="Group_5" data-name="Group 5"><g id="Group_4" data-name="Group 4"><g id="Group_3" data-name="Group 3"><g id="Group_2" data-name="Group 2" clip-path="url(#clip-path)"><rect id="Rectangle_989_11_" width="5" height="115.9" transform="translate(80.2 232.9)" fill="#fff"></rect><rect id="Rectangle_989_10_" width="6.9" height="115.9" transform="translate(65.3 232.9)" fill="#fff"></rect><rect id="Rectangle_990_5_" width="5" height="192.1" transform="translate(93.2 197.5)" fill="#fff"></rect><rect id="Rectangle_991_5_" width="6.5" height="184.9" transform="translate(122.6 179.3)" fill="#fff"></rect><rect id="Rectangle_992_5_" width="6.5" height="200.3" transform="translate(137.7 163.9)" fill="#fff"></rect><rect id="Rectangle_993_5_" width="13.7" height="211.6" transform="translate(157.1 152.5)" fill="#fff"></rect><rect id="Rectangle_994_11_" width="5" height="219.7" transform="translate(179.4 144.4)" fill="#fff"></rect><rect id="Rectangle_995_5_" width="6.5" height="226.2" transform="translate(202.4 137.9)" fill="#fff"></rect><rect id="Rectangle_996_11_" width="3.6" height="226.2" transform="translate(189.5 137.9)" fill="#fff"></rect><rect id="Rectangle_994_10_" width="5" height="228.1" transform="translate(248 136)" fill="#fff"></rect><rect id="Rectangle_996_10_" width="3.6" height="234.8" transform="translate(258 129.3)" fill="#fff"></rect><rect id="Rectangle_997_5_" width="5.8" height="226.2" transform="translate(222.5 137.9)" fill="#fff"></rect><rect id="Rectangle_999_5_" width="4.7" height="271.6" transform="translate(270.3 92.5)" fill="#fff"></rect><rect id="Rectangle_1000_11_" width="4.3" height="295.1" transform="translate(291.5 69)" fill="#fff"></rect><rect id="Rectangle_1001_11_" width="7.9" height="324.3" transform="translate(335.4 39.8)" fill="#fff"></rect><rect id="Rectangle_1001_10_" width="4" height="324.3" transform="translate(313.9 39.8)" fill="#fff"></rect><rect id="Rectangle_1002_11_" width="6.5" height="302.4" transform="translate(300.2 61.7)" fill="#fff"></rect><rect id="Rectangle_1000_10_" width="4.3" height="321.3" transform="translate(351.9 42.8)" fill="#fff"></rect><rect id="Rectangle_1002_10_" width="6.5" height="329.3" transform="translate(360.5 34.9)" fill="#fff"></rect><rect id="Rectangle_1004_5_" width="8.6" height="329.3" transform="translate(377.8 34.9)" fill="#fff"></rect></g></g></g></g></g></g><g id="Group_12" data-name="Group 12" transform="translate(2883.7 -2925.2)"><path id="Path_4" data-name="Path 4" d="M223.4,150.6a200.607,200.607,0,0,1,23.2,1.4l6.9.8,2.3-6.6c20.4-59.7,77.5-99.9,142.1-99.9,1.9,0,3.8,0,5.8.1V367.8H77.1A131.8,131.8,0,0,1,56,296.7C56,216.2,131.1,150.6,223.4,150.6Z" fill="#fff"></path><g id="Group_10" data-name="Group 10"><g id="Group_9" data-name="Group 9"><g id="Group_8" data-name="Group 8" clip-path="url(#clip-path-2)"><rect id="Rectangle_989_3_" width="5" height="115.9" transform="translate(80.2 232.8)"></rect><rect id="Rectangle_989_2_" width="6.9" height="115.9" transform="translate(65.3 232.8)"></rect><rect id="Rectangle_990_1_" width="5" height="192.1" transform="translate(93.2 197.5)"></rect><rect id="Rectangle_991_1_" width="6.5" height="184.9" transform="translate(122.6 179.2)"></rect><rect id="Rectangle_992_1_" width="6.5" height="200.3" transform="translate(137.7 163.8)"></rect><rect id="Rectangle_993_1_" width="13.7" height="211.6" transform="translate(157.1 152.5)"></rect><rect id="Rectangle_994_3_" width="5" height="219.7" transform="translate(179.4 144.4)"></rect><rect id="Rectangle_995_1_" width="6.5" height="226.2" transform="translate(202.4 137.9)"></rect><rect id="Rectangle_996_3_" width="3.6" height="226.2" transform="translate(189.5 137.9)"></rect><rect id="Rectangle_994_2_" width="5" height="228.1" transform="translate(248 136)"></rect><rect id="Rectangle_996_2_" width="3.6" height="234.8" transform="translate(258 129.2)"></rect><rect id="Rectangle_997_1_" width="5.8" height="226.2" transform="translate(222.5 137.9)"></rect><rect id="Rectangle_999_1_" width="4.7" height="271.6" transform="translate(270.3 92.5)"></rect><rect id="Rectangle_1000_3_" width="4.3" height="295.1" transform="translate(291.5 69)"></rect><rect id="Rectangle_1001_3_" width="7.9" height="324.3" transform="translate(335.4 39.8)"></rect><rect id="Rectangle_1001_2_" width="4" height="324.3" transform="translate(313.9 39.8)"></rect><rect id="Rectangle_1002_3_" width="6.5" height="302.4" transform="translate(300.2 61.7)"></rect><rect id="Rectangle_1000_2_" width="4.3" height="321.3" transform="translate(351.9 42.7)"></rect><rect id="Rectangle_1002_2_" width="6.5" height="329.3" transform="translate(360.5 34.8)"></rect><rect id="Rectangle_1004_1_" width="8.6" height="329.3" transform="translate(377.8 34.8)"></rect></g></g></g><g id="Group_11" data-name="Group 11"><path id="Path_6" data-name="Path 6" d="M30.3,444.4H91.1c23.3,0,36.8,10,36.6,28.6,0,12.1-5.5,20.4-16.4,24.9,14.6,4.5,21.1,15.3,21.1,28.3,0,15.4-9.5,30.7-38.6,30.7H30.3Zm30.4,45.5H82.1c9,0,14.1-3.5,14.1-10.4s-4.7-10.4-14.1-10.4H60.7Zm0,42.4H86.3c10.3,0,14.6-4.8,14.6-11.2,0-5.6-3.7-11.1-14.6-11.1H60.7Z"></path><path id="Path_7" data-name="Path 7" d="M225,505v51.9H196.7v-9.6a36.051,36.051,0,0,1-26.8,11.3c-7.6,0-13.8-2.3-18.8-6.9-4.8-4.7-7.2-10.6-7.2-18.2,0-14.9,11.1-23.5,29.1-23.6h23.8v-2.1c0-7.6-5.3-10.9-14.1-10.9-7.6,0-15.4,2.3-23.3,6.9l-8-18A81.465,81.465,0,0,1,190.5,475C211.1,475,225,484.4,225,505Zm-28.3,15.6H184c-7.9,0-12.2,3.5-12.2,10,0,6.9,4.3,11.2,10.8,11.2a23.138,23.138,0,0,0,14.1-4.3V520.6Z"></path><path id="Path_8" data-name="Path 8" d="M297.7,497.8c-10.4,0-19.8,4.8-27.8,14.3v44.8H241.6V476.5h28.3v14.8c8.2-10.4,18.2-16.4,27.8-16.4Z"></path><path id="Path_9" data-name="Path 9" d="M415.7,467.6l-26.2,14.6a27.819,27.819,0,0,0-42.1-2.4c-5.3,5.6-7.9,12.7-7.9,20.9s2.6,15.3,7.9,20.9a27.819,27.819,0,0,0,42.1-2.4l26.2,14.6a59.405,59.405,0,0,1-48.5,24.8c-32.6,0-59.1-25.9-59.1-57.9-.8-31.3,27.2-58.5,59.1-57.9A59.268,59.268,0,0,1,415.7,467.6Z" fill="#00ace9"></path><path id="Path_10" data-name="Path 10" d="M460.2,556.9H431.9V444.4h28.3Z" fill="#00ace9"></path><path id="Path_11" data-name="Path 11" d="M565.6,516.7c0,11.6-4.5,21.4-13.5,29.6-8.8,8.2-19.6,12.2-32.3,12.2s-23.5-4-32.5-12.2c-8.8-8.2-13.3-18-13.3-29.6s4.5-21.4,13.3-29.6c9-8.2,19.8-12.2,32.5-12.2C544.4,474.5,566.1,494.1,565.6,516.7Zm-45.9,17.9a17.8,17.8,0,0,0,12.5-5.1,17.293,17.293,0,0,0,5.3-12.7,16.539,16.539,0,0,0-5.3-12.5c-10.3-11.6-31.2-2.7-30.4,12.5A17.925,17.925,0,0,0,519.7,534.6Z" fill="#00ace9"></path><path id="Path_12" data-name="Path 12" d="M607.6,476.6v46.9c0,7.7,4.3,12.2,11.4,12.2a26.672,26.672,0,0,0,17.8-6.4V476.6h28.3V557H636.8v-8.8a46.54,46.54,0,0,1-29.4,10.4c-16.5,0-28.1-9.2-28.1-26.5V476.7h28.3Z" fill="#00ace9"></path><path id="Path_13" data-name="Path 13" d="M767.8,444.4V556.9H739.5v-9.8c-7.1,7.6-15.6,11.4-25.4,11.4-10.8,0-19.3-4-25.6-11.9s-9.5-17.8-9.5-29.9,3.2-22,9.5-29.9,14.8-11.9,25.6-11.9c9.8,0,18.2,3.9,25.4,11.4v-42l28.3.1Zm-55.6,59.8a17.051,17.051,0,0,0-5.1,12.5,17.918,17.918,0,0,0,5.1,12.7,16.986,16.986,0,0,0,12.4,5.1c6.3,0,11.7-3.7,14.9-8.7V507.5a17.437,17.437,0,0,0-14.9-8.7A16.937,16.937,0,0,0,712.2,504.2Z" fill="#00ace9"></path></g></g><circle id="Ellipse_1" data-name="Ellipse 1" cx="11.8" cy="11.8" r="11.8" transform="translate(3660.9 -2481.8)" fill="none" stroke="#231f20" stroke-miterlimit="10" stroke-width="1"></circle><rect id="Rectangle_6" data-name="Rectangle 6" width="14.4" height="17.7" transform="translate(3666.9 -2478.3)" fill="none"></rect><text id="R" transform="translate(3666.936 -2462.877)" font-size="21.73" font-family="MyriadPro-Regular, Myriad Pro"><tspan x="0" y="0">R</tspan></text></g></svg> 